<svg width="24" height="25" viewBox="0 0 24 25" fill="none" xmlns="http://www.w3.org/2000/svg">
<path d="M15.78 13.5262C15.9207 13.3857 15.9998 13.1951 16 12.9962V12.6162C15.9977 12.4178 15.9189 12.228 15.78 12.0862L10.64 6.95625C10.5461 6.86159 10.4183 6.80835 10.285 6.80835C10.1517 6.80835 10.0239 6.86159 9.93 6.95625L9.22 7.66625C9.12594 7.75841 9.07293 7.88456 9.07293 8.01625C9.07293 8.14794 9.12594 8.27409 9.22 8.36625L13.67 12.8062L9.22 17.2462C9.12534 17.3401 9.0721 17.4679 9.0721 17.6012C9.0721 17.7346 9.12534 17.8624 9.22 17.9562L9.93 18.6562C10.0239 18.7509 10.1517 18.8041 10.285 18.8041C10.4183 18.8041 10.5461 18.7509 10.64 18.6562L15.78 13.5262Z" fill="#52423D"/>
</svg>
