<svg width="24" height="25" viewBox="0 0 24 25" fill="none" xmlns="http://www.w3.org/2000/svg">
<path d="M8.22 13.5262C8.07931 13.3857 8.00018 13.1951 8 12.9962V12.6162C8.0023 12.4178 8.08112 12.228 8.22 12.0862L13.36 6.95625C13.4539 6.86159 13.5817 6.80835 13.715 6.80835C13.8483 6.80835 13.9761 6.86159 14.07 6.95625L14.78 7.66625C14.8741 7.75841 14.9271 7.88456 14.9271 8.01625C14.9271 8.14794 14.8741 8.27409 14.78 8.36625L10.33 12.8062L14.78 17.2462C14.8747 17.3401 14.9279 17.4679 14.9279 17.6012C14.9279 17.7346 14.8747 17.8624 14.78 17.9562L14.07 18.6562C13.9761 18.7509 13.8483 18.8041 13.715 18.8041C13.5817 18.8041 13.4539 18.7509 13.36 18.6562L8.22 13.5262Z" fill="#52423D"/>
</svg>
