<svg width="54" height="56" viewBox="0 0 54 56" fill="none" xmlns="http://www.w3.org/2000/svg">
<path d="M26.8066 1.35498V7.76383" stroke="#A18D87" stroke-width="2.59819" stroke-linecap="round" stroke-linejoin="round"/>
<path d="M13.4695 5.68604V11.9217" stroke="#A18D87" stroke-width="2.59819" stroke-linecap="round" stroke-linejoin="round"/>
<path d="M40.1438 5.68604V11.9217" stroke="#A18D87" stroke-width="2.59819" stroke-linecap="round" stroke-linejoin="round"/>
<path d="M1.43091 49.6318H52.1823" stroke="#A18D87" stroke-width="2.59819" stroke-linecap="round" stroke-linejoin="round"/>
<path d="M4.37524 43.3977C5.3071 38.0894 8.07058 33.2758 12.1848 29.7946C16.2991 26.3133 21.5036 24.3846 26.8929 24.3442C32.2713 24.3568 37.4703 26.2794 41.5628 29.7691C45.6554 33.2589 48.3752 38.0888 49.2374 43.3977" stroke="#A18D87" stroke-width="2.59819" stroke-linecap="round" stroke-linejoin="round"/>
<path d="M26.8932 24.1697C29.3804 24.1697 31.3967 22.1534 31.3967 19.6661C31.3967 17.1789 29.3804 15.1626 26.8932 15.1626C24.406 15.1626 22.3896 17.1789 22.3896 19.6661C22.3896 22.1534 24.406 24.1697 26.8932 24.1697Z" stroke="#A18D87" stroke-width="2.59819" stroke-linecap="round" stroke-linejoin="round"/>
</svg>
