<svg width="24" height="24" viewBox="0 0 26 25" fill="none" xmlns="http://www.w3.org/2000/svg">
<path d="M1.36194 24.0833H25.1262" stroke="#A18D87" stroke-width="1.2166" stroke-linecap="round" stroke-linejoin="round"/>
<path d="M2.7406 21.1639C3.17694 18.6783 4.47094 16.4244 6.39742 14.7943C8.32391 13.1642 10.7609 12.2611 13.2845 12.2422C15.8029 12.2481 18.2373 13.1483 20.1536 14.7824C22.07 16.4165 23.3435 18.6781 23.7472 21.1639" stroke="#A18D87" stroke-width="1.2166" stroke-linecap="round" stroke-linejoin="round"/>
<path d="M13.2847 12.1604C14.4493 12.1604 15.3935 11.2163 15.3935 10.0517C15.3935 8.88701 14.4493 7.94287 13.2847 7.94287C12.12 7.94287 11.1759 8.88701 11.1759 10.0517C11.1759 11.2163 12.12 12.1604 13.2847 12.1604Z" stroke="#A18D87" stroke-width="1.2166" stroke-linecap="round" stroke-linejoin="round"/>
<path d="M13.2845 1.5354V4.53633" stroke="#A18D87" stroke-width="1.2166" stroke-linecap="round" stroke-linejoin="round"/>
<path d="M7.03931 3.56299V6.48283" stroke="#A18D87" stroke-width="1.2166" stroke-linecap="round" stroke-linejoin="round"/>
<path d="M19.5297 3.56299V6.48283" stroke="#A18D87" stroke-width="1.2166" stroke-linecap="round" stroke-linejoin="round"/>
</svg>
