<svg width="24" height="24" viewBox="0 0 24 24" fill="none" xmlns="http://www.w3.org/2000/svg">
<path d="M17.7107 19.5092V22.8346H6.35577V19.5092H6.43691C4.71824 18.5364 3.29223 17.1201 2.30781 15.408C1.3234 13.696 0.816666 11.7511 0.840527 9.77637H23.3071C23.3141 11.7478 22.8002 13.6861 21.8175 15.3952C20.8348 17.1043 19.4181 18.5235 17.7107 19.5092Z" stroke="#A18D87" stroke-width="1.2166" stroke-linecap="round" stroke-linejoin="round"/>
<path d="M16.9808 9.85683H11.3033L16.8186 1.82727C17.1799 1.30815 17.729 0.950102 18.3498 0.828981C18.9705 0.70786 19.614 0.833196 20.1439 1.17843C20.6631 1.53969 21.0211 2.08888 21.1422 2.70962C21.2634 3.33037 21.138 3.97387 20.7928 4.50378L16.9808 9.85683Z" stroke="#A18D87" stroke-width="1.2166" stroke-linecap="round" stroke-linejoin="round"/>
</svg>
