<svg width="54" height="57" viewBox="0 0 54 57" fill="none" xmlns="http://www.w3.org/2000/svg">
<path d="M42.4277 22.2292H29.769L42.066 4.32625C42.8715 3.16881 44.096 2.37049 45.48 2.10044C46.864 1.83038 48.2988 2.10983 49.4803 2.87957C50.6378 3.68505 51.4361 4.90954 51.7061 6.29357C51.9762 7.6776 51.6967 9.11236 50.927 10.2939L42.4277 22.2292Z" stroke="#A18D87" stroke-width="2.71257" stroke-linecap="round" stroke-linejoin="round"/>
<path d="M39.3287 43.9296V51.3439H14.0114V43.9296H14.1923C10.3603 41.7606 7.18083 38.6027 4.98595 34.7856C2.79107 30.9684 1.66124 26.6319 1.71444 22.229H51.8066C51.8221 26.6246 50.6764 30.9463 48.4853 34.7569C46.2942 38.5675 43.1354 41.7318 39.3287 43.9296Z" stroke="#A18D87" stroke-width="2.71257" stroke-linecap="round" stroke-linejoin="round"/>
</svg>
