<svg width="501" height="307" viewBox="0 0 501 307" fill="none" xmlns="http://www.w3.org/2000/svg">
<path fill-rule="evenodd" clip-rule="evenodd" d="M197.073 86.2988C196.467 88.5637 195.354 90.5583 193.891 92.1939C223.064 106.512 239.018 139.888 230.289 172.465L228.043 180.848C227.63 182.391 226.044 183.306 224.5 182.893L95.969 148.453C94.4258 148.04 93.51 146.453 93.9235 144.91L96.1696 136.528C104.995 103.593 136.076 82.5648 168.897 85.2905C168.494 83.2062 168.545 81.0004 169.132 78.8119C171.199 71.096 179.13 66.5171 186.846 68.5846C194.562 70.652 199.141 78.583 197.073 86.2988ZM182.354 85.3495C183.897 85.763 185.483 84.8472 185.897 83.3041C186.31 81.7609 185.394 80.1747 183.851 79.7612C182.308 79.3477 180.722 80.2635 180.308 81.8067C179.895 83.3498 180.811 84.936 182.354 85.3495ZM214.715 162.302C218.673 136.41 202.594 111.138 176.706 104.201C150.818 97.2648 124.257 111.112 114.739 135.514L214.715 162.302Z" fill="#52423D"/>
<path fill-rule="evenodd" clip-rule="evenodd" d="M96.8084 202.463C95.0773 195.193 100.591 188.212 108.065 188.212H217.617C225.091 188.212 230.604 195.193 228.873 202.463L222.812 227.919C221.571 233.132 216.914 236.81 211.556 236.81H114.126C108.768 236.81 104.11 233.132 102.869 227.919L96.8084 202.463ZM118.695 219.454L115.389 205.569H210.292L206.986 219.454H118.695Z" fill="#52423D"/>
<path d="M303.698 164.288L291.701 147.404V162.915C291.701 163.696 291.419 164.369 290.853 164.934C290.314 165.5 289.655 165.783 288.874 165.783C288.066 165.783 287.379 165.5 286.814 164.934C286.248 164.369 285.965 163.696 285.965 162.915V142.032C285.965 141.008 286.329 140.133 287.056 139.406C287.783 138.652 288.672 138.275 289.722 138.275C291.015 138.275 292.038 138.8 292.792 139.85L304.344 156.008V141.143C304.344 140.362 304.614 139.689 305.152 139.123C305.718 138.558 306.404 138.275 307.212 138.275C307.993 138.275 308.666 138.558 309.232 139.123C309.797 139.689 310.08 140.362 310.08 141.143V162.268C310.08 163.238 309.73 164.073 309.03 164.773C308.357 165.446 307.535 165.783 306.566 165.783C305.354 165.783 304.398 165.284 303.698 164.288ZM314.019 155.725C314.019 152.843 314.962 150.42 316.847 148.454C318.758 146.488 321.249 145.505 324.319 145.505C327.416 145.505 329.907 146.488 331.792 148.454C333.704 150.42 334.66 152.843 334.66 155.725C334.66 158.633 333.704 161.07 331.792 163.036C329.907 165.002 327.416 165.985 324.319 165.985C321.222 165.985 318.732 165.002 316.847 163.036C314.962 161.07 314.019 158.633 314.019 155.725ZM329.328 155.725C329.328 154.109 328.87 152.763 327.955 151.685C327.039 150.608 325.827 150.07 324.319 150.07C322.811 150.07 321.599 150.608 320.684 151.685C319.795 152.736 319.351 154.082 319.351 155.725C319.351 157.367 319.795 158.727 320.684 159.804C321.599 160.882 322.811 161.42 324.319 161.42C325.827 161.42 327.039 160.882 327.955 159.804C328.87 158.727 329.328 157.367 329.328 155.725ZM365.442 155.038L370.007 161.259C370.384 161.797 370.572 162.403 370.572 163.076C370.572 163.776 370.303 164.409 369.765 164.975C369.226 165.513 368.58 165.783 367.826 165.783C366.802 165.783 366.008 165.379 365.442 164.571L359.384 155.846H354.658V162.915C354.658 163.696 354.375 164.369 353.809 164.934C353.271 165.5 352.611 165.783 351.83 165.783C351.022 165.783 350.336 165.5 349.77 164.934C349.205 164.369 348.922 163.696 348.922 162.915V141.587C348.922 140.618 349.178 139.877 349.689 139.366C350.228 138.827 350.982 138.558 351.951 138.558H361.524C364.271 138.558 366.466 139.366 368.108 140.981C369.751 142.597 370.572 144.684 370.572 147.242C370.572 149.181 370.101 150.824 369.159 152.17C368.216 153.517 366.977 154.473 365.442 155.038ZM354.658 143.486V150.918H360.676C361.834 150.918 362.79 150.581 363.544 149.908C364.325 149.208 364.715 148.306 364.715 147.202C364.715 146.098 364.325 145.209 363.544 144.536C362.79 143.836 361.834 143.486 360.676 143.486H354.658ZM382.616 145.505C385.417 145.505 387.746 146.434 389.604 148.292C391.462 150.124 392.391 152.345 392.391 154.957C392.391 156.573 391.381 157.381 389.362 157.381H377.89C378.052 158.7 378.631 159.791 379.627 160.653C380.65 161.488 381.943 161.905 383.505 161.905C384.851 161.905 386.171 161.541 387.463 160.814C387.733 160.653 388.056 160.572 388.433 160.572C388.971 160.572 389.443 160.774 389.847 161.178C390.25 161.582 390.452 162.053 390.452 162.592C390.452 163.373 390.089 163.965 389.362 164.369C387.477 165.446 385.336 165.985 382.939 165.985C379.923 165.985 377.432 165.042 375.467 163.157C373.501 161.245 372.518 158.768 372.518 155.725C372.518 152.87 373.474 150.46 375.386 148.494C377.298 146.502 379.708 145.505 382.616 145.505ZM377.809 153.907H387.423C387.342 152.695 386.884 151.672 386.05 150.837C385.215 150.002 384.07 149.585 382.616 149.585C381.243 149.585 380.139 150.002 379.304 150.837C378.469 151.672 377.971 152.695 377.809 153.907ZM394.845 162.228C394.845 161.636 395.046 161.137 395.45 160.734C395.881 160.303 396.393 160.087 396.985 160.087C397.362 160.087 397.726 160.181 398.076 160.37C399.853 161.474 401.617 162.026 403.367 162.026C405.549 162.026 406.639 161.366 406.639 160.047C406.639 159.454 406.33 158.997 405.71 158.673C405.118 158.323 404.121 158.014 402.721 157.744C401.132 157.475 399.84 157.152 398.843 156.775C396.312 155.94 395.046 154.23 395.046 151.645C395.046 149.922 395.774 148.467 397.228 147.283C398.682 146.098 400.621 145.505 403.044 145.505C405.441 145.505 407.582 146.084 409.467 147.242C410.14 147.592 410.477 148.158 410.477 148.939C410.477 149.477 410.275 149.949 409.871 150.352C409.494 150.729 409.036 150.918 408.497 150.918C408.093 150.918 407.77 150.837 407.528 150.676C406.181 149.841 404.7 149.423 403.085 149.423C402.142 149.423 401.388 149.585 400.823 149.908C400.284 150.231 400.015 150.676 400.015 151.241C400.015 151.78 400.284 152.197 400.823 152.493C401.388 152.79 402.358 153.072 403.731 153.342C405.104 153.584 406.41 153.921 407.649 154.351C410.261 155.294 411.567 157.085 411.567 159.724C411.567 161.555 410.813 163.063 409.305 164.248C407.797 165.406 405.737 165.985 403.125 165.985C400.405 165.985 398.009 165.352 395.935 164.086C395.208 163.682 394.845 163.063 394.845 162.228ZM433.645 148.292V163.197C433.645 163.925 433.389 164.544 432.877 165.056C432.392 165.567 431.8 165.823 431.1 165.823C430.373 165.823 429.753 165.567 429.242 165.056C428.73 164.544 428.474 163.925 428.474 163.197V163.076C426.724 165.015 424.448 165.985 421.648 165.985C419.574 165.985 417.999 165.459 416.922 164.409C415.872 163.332 415.346 161.811 415.346 159.845V148.292C415.346 147.592 415.589 146.986 416.074 146.475C416.585 145.963 417.205 145.707 417.932 145.707C418.632 145.707 419.224 145.963 419.709 146.475C420.221 146.986 420.476 147.592 420.476 148.292V157.825C420.476 160.222 421.675 161.42 424.071 161.42C425.876 161.42 427.357 160.68 428.515 159.199V148.292C428.515 147.592 428.757 146.986 429.242 146.475C429.753 145.963 430.359 145.707 431.059 145.707C431.76 145.707 432.365 145.963 432.877 146.475C433.389 146.986 433.645 147.592 433.645 148.292ZM438.738 163.197V140.86C438.738 140.16 438.981 139.554 439.465 139.042C439.977 138.531 440.596 138.275 441.323 138.275C442.023 138.275 442.616 138.531 443.101 139.042C443.612 139.554 443.868 140.16 443.868 140.86V163.197C443.868 163.898 443.612 164.504 443.101 165.015C442.616 165.527 442.023 165.783 441.323 165.783C440.596 165.783 439.977 165.527 439.465 165.015C438.981 164.504 438.738 163.898 438.738 163.197ZM459.699 163.561C459.699 164.584 459.188 165.258 458.164 165.581C457.437 165.85 456.549 165.985 455.498 165.985C453.694 165.985 452.321 165.527 451.378 164.611C450.436 163.696 449.965 162.376 449.965 160.653V150.474H448.712C448.093 150.474 447.554 150.258 447.097 149.827C446.666 149.397 446.45 148.871 446.45 148.252C446.45 147.633 446.666 147.108 447.097 146.677C447.554 146.219 448.093 145.99 448.712 145.99H449.965V142.961C449.965 142.26 450.22 141.655 450.732 141.143C451.244 140.631 451.863 140.375 452.59 140.375C453.29 140.375 453.883 140.631 454.367 141.143C454.879 141.655 455.135 142.26 455.135 142.961V145.99H457.155C457.774 145.99 458.299 146.219 458.73 146.677C459.161 147.108 459.376 147.633 459.376 148.252C459.376 148.844 459.161 149.37 458.73 149.827C458.299 150.258 457.774 150.474 457.155 150.474H455.135V159.279C455.135 159.926 455.283 160.451 455.579 160.855C455.902 161.232 456.333 161.42 456.872 161.42C457.006 161.42 457.168 161.407 457.356 161.38C457.545 161.353 457.666 161.339 457.72 161.339C458.312 161.366 458.784 161.595 459.134 162.026C459.511 162.43 459.699 162.942 459.699 163.561Z" fill="#52423D"/>
</svg>
