<svg width="45" height="48" viewBox="0 0 45 48" fill="none" xmlns="http://www.w3.org/2000/svg">
<ellipse cx="22.4241" cy="23.5867" rx="22.4241" ry="23.5867" fill="#CCFCCE"/>
<path d="M31.3611 31.6124L27.3114 27.3624C28.3223 26.0102 28.8703 24.3389 28.8669 22.6187C28.8669 21.0869 28.435 19.5895 27.6259 18.3158C26.8169 17.0422 25.6669 16.0495 24.3215 15.4633C22.976 14.8771 21.4955 14.7238 20.0672 15.0226C18.6389 15.3214 17.3269 16.0591 16.2972 17.1422C15.2674 18.2254 14.5662 19.6054 14.282 21.1077C13.9979 22.6101 14.1438 24.1673 14.7011 25.5825C15.2584 26.9977 16.2021 28.2073 17.413 29.0583C18.6238 29.9093 20.0474 30.3636 21.5037 30.3636C23.1392 30.3672 24.728 29.7908 26.0136 28.7275L30.0542 32.9872C30.2275 33.1695 30.4625 33.2719 30.7076 33.2719C30.9527 33.2719 31.1878 33.1695 31.3611 32.9872C31.5344 32.8049 31.6318 32.5576 31.6318 32.2998C31.6318 32.042 31.5344 31.7947 31.3611 31.6124V31.6124ZM17.6012 26.7719C16.6872 25.8317 16.1115 24.587 15.9726 23.2502C15.8336 21.9134 16.1399 20.5672 16.8393 19.4415C17.5386 18.3157 18.5877 17.4801 19.8074 17.0771C21.0272 16.6741 22.342 16.7288 23.5277 17.2318C24.7134 17.7348 25.6965 18.6549 26.3092 19.8352C26.9218 21.0155 27.1262 22.3829 26.8874 23.704C26.6485 25.0251 25.9813 26.2181 24.9995 27.0795C24.0177 27.9409 22.7822 28.4172 21.5037 28.4274C20.0396 28.426 18.6359 27.8131 17.6012 26.7235V26.7719Z" fill="#52423D"/>
</svg>
