<svg width="46" height="49" viewBox="0 0 46 49" fill="none" xmlns="http://www.w3.org/2000/svg">
<ellipse cx="23" cy="24.5001" rx="22.4241" ry="23.5867" fill="#34CF3D"/>
<path d="M31.9371 32.5258L27.8874 28.2758C28.8983 26.9235 29.4463 25.2523 29.4428 23.532C29.4428 22.0002 29.011 20.5028 28.2019 19.2292C27.3929 17.9555 26.2429 16.9629 24.8975 16.3767C23.552 15.7905 22.0715 15.6371 20.6432 15.9359C19.2149 16.2348 17.9029 16.9724 16.8732 18.0555C15.8434 19.1387 15.1421 20.5187 14.858 22.0211C14.5739 23.5234 14.7197 25.0807 15.277 26.4959C15.8343 27.911 16.7781 29.1206 17.989 29.9717C19.1998 30.8227 20.6234 31.2769 22.0797 31.2769C23.7152 31.2806 25.304 30.7041 26.5896 29.6408L30.6301 33.9005C30.8035 34.0828 31.0385 34.1852 31.2836 34.1852C31.5287 34.1852 31.7638 34.0828 31.9371 33.9005C32.1104 33.7182 32.2078 33.4709 32.2078 33.2131C32.2078 32.9553 32.1104 32.7081 31.9371 32.5258ZM18.1772 27.6852C17.2631 26.745 16.6875 25.5003 16.5486 24.1635C16.4096 22.8267 16.7159 21.4806 17.4153 20.3548C18.1146 19.229 19.1637 18.3934 20.3834 17.9904C21.6031 17.5875 22.918 17.6421 24.1037 18.1451C25.2894 18.6481 26.2725 19.5682 26.8852 20.7485C27.4978 21.9289 27.7022 23.2962 27.4633 24.6173C27.2245 25.9384 26.5573 27.1314 25.5755 27.9928C24.5937 28.8542 23.3582 29.3306 22.0797 29.3407C20.6156 29.3393 19.2119 28.7265 18.1772 27.6368V27.6852Z" fill="#52423D"/>
</svg>
